<svg width="26px" height="26px" viewBox="0 0 26 26" version="1.1" xmlns="http://www.w3.org/2000/svg" xmlns:xlink="http://www.w3.org/1999/xlink">
    <g stroke="none" stroke-width="1" fill="none" fill-rule="evenodd">
        <g transform="translate(-40.000000, -455.000000)" fill="#87898C" fill-rule="nonzero">
            <g transform="translate(40.000000, 455.000000)">
                <path d="M19.9333333,13 C19.9333333,16.8289333 16.8289333,19.9333333 13,19.9333333 C9.17106667,19.9333333 6.06666667,16.8289333 6.06666667,13 C6.06666667,9.17106667 9.17106667,6.06666667 13,6.06666667 C16.8289333,6.06666667 19.9333333,9.17106667 19.9333333,13"></path>
                <path d="M24.05,3.25 C24.05,4.92526667 22.6919333,6.28333333 21.0166667,6.28333333 C19.3414,6.28333333 17.9833333,4.92526667 17.9833333,3.25 C17.9833333,1.57473333 19.3414,0.216666667 21.0166667,0.216666667 C22.6919333,0.216666667 24.05,1.57473333 24.05,3.25"></path>
                <path d="M13,0.866666667 C6.30933333,0.866666667 0.866666667,6.30933333 0.866666667,13 C0.866666667,19.6906667 6.30933333,25.1333333 13,25.1333333 C19.6906667,25.1333333 25.1333333,19.6906667 25.1333333,13 C25.1333333,6.30933333 19.6906667,0.866666667 13,0.866666667 M13,26 C5.8318,26 0,20.1682 0,13 C0,5.8318 5.8318,0 13,0 C20.1682,0 26,5.8318 26,13 C26,20.1682 20.1682,26 13,26"></path>
            </g>
        </g>
    </g>
</svg>