<svg width="28px" height="26px" viewBox="0 0 28 26" version="1.1" xmlns="http://www.w3.org/2000/svg" xmlns:xlink="http://www.w3.org/1999/xlink">
    <g stroke="none" stroke-width="1" fill="none" fill-rule="evenodd">
        <g transform="translate(-40.000000, -886.000000)" fill="#87898C" fill-rule="nonzero">
            <g transform="translate(40.000000, 886.000000)">
                <path d="M17.1842069,13.8965518 C17.1842069,15.6295862 15.7793103,17.0344828 14.0462759,17.0344828 C12.3123448,17.0344828 10.9083448,15.6295862 10.9083448,13.8965518 C10.9083448,12.1635172 12.3123448,10.7586207 14.0462759,10.7586207 C15.7793103,10.7586207 17.1842069,12.1635172 17.1842069,13.8965518 Z"></path>
                <path d="M16.2876551,2.24137931 C16.2876551,3.47951724 15.2844138,4.48275862 14.0462759,4.48275862 C12.8081379,4.48275862 11.8048966,3.47951724 11.8048966,2.24137931 C11.8048966,1.00324138 12.8081379,0 14.0462759,0 C15.2844138,0 16.2876551,1.00324138 16.2876551,2.24137931"></path>
                <path d="M27.7931034,10.3103448 C27.7931034,11.5484828 26.7898621,12.5517241 25.5517241,12.5517241 C24.3135862,12.5517241 23.3103448,11.5484828 23.3103448,10.3103448 C23.3103448,9.0722069 24.3135862,8.06896552 25.5517241,8.06896552 C26.7898621,8.06896552 27.7931034,9.0722069 27.7931034,10.3103448"></path>
                <path d="M4.48275862,10.3103448 C4.48275862,11.5484828 3.47951724,12.5517241 2.24137931,12.5517241 C1.00324138,12.5517241 0,11.5484828 0,10.3103448 C0,9.0722069 1.00324138,8.06896552 2.24137931,8.06896552 C3.47951724,8.06896552 4.48275862,9.0722069 4.48275862,10.3103448"></path>
                <path d="M18.8275862,23.7586207 C18.8275862,22.5204828 19.8308276,21.5172413 21.0689656,21.5172413 C22.3071034,21.5172413 23.3103448,22.5204828 23.3103448,23.7586207 C23.3103448,24.9967587 22.3071034,26 21.0689656,26 C19.8308276,26 18.8275862,24.9967587 18.8275862,23.7586207"></path>
                <path d="M4.48275862,23.7586207 C4.48275862,22.5204828 5.486,21.5172413 6.72413793,21.5172413 C7.96227587,21.5172413 8.96551724,22.5204828 8.96551724,23.7586207 C8.96551724,24.9967587 7.96227587,26 6.72413793,26 C5.486,26 4.48275862,24.9967587 4.48275862,23.7586207"></path>
                <polygon points="13.598 12.5517241 14.4945518 12.5517241 14.4945518 0.896551724 13.598 0.896551724"></polygon>
                <path d="M3.26577931,10.1566759 L13.8961931,13.4272966 L24.5472276,10.1504 L14.1158482,2.78612413 L3.26577931,10.1566759 Z M13.8961931,14.3650897 L1.21715862,10.4641931 L14.1257103,1.69591724 L26.5564,10.470469 L13.8961931,14.3650897 Z"></path>
                <path d="M7.60401379,23.3103448 L20.1889103,23.3103448 L13.8969103,14.6586207 L7.60401379,23.3103448 Z M6.57477241,24.7268966 L1.81587587,10.452 L2.66670344,10.1686897 L6.87422069,22.7903449 L13.8969103,13.1344828 L21.9488413,24.2068966 L6.95222069,24.2068966 L6.57477241,24.7268966 Z"></path>
                <polygon points="21.494469 23.9004551 20.6436413 23.6171449 25.1264 10.168869 25.9772276 10.4521793"></polygon>
            </g>
        </g>
    </g>
</svg>