<svg width="26px" height="26px" viewBox="0 0 26 26" version="1.1" xmlns="http://www.w3.org/2000/svg" xmlns:xlink="http://www.w3.org/1999/xlink">
    <g stroke="none" stroke-width="1" fill="none" fill-rule="evenodd">
        <g transform="translate(-40.000000, -596.000000)" fill="#87898C" fill-rule="nonzero">
            <g transform="translate(40.000000, 596.000000)">
                <path d="M6.27586207,22.862069 C6.27586207,24.5951034 4.87096551,26 3.13793103,26 C1.40489656,26 0,24.5951034 0,22.862069 C0,21.1290344 1.40489656,19.7241379 3.13793103,19.7241379 C4.87096551,19.7241379 6.27586207,21.1290344 6.27586207,22.862069"></path>
                <path d="M26,22.862069 C26,24.5951034 24.5951034,26 22.862069,26 C21.1290344,26 19.7241379,24.5951034 19.7241379,22.862069 C19.7241379,21.1290344 21.1290344,19.7241379 22.862069,19.7241379 C24.5951034,19.7241379 26,21.1290344 26,22.862069"></path>
                <path d="M16.137931,3.13793103 C16.137931,4.87096551 14.7330344,6.27586207 13,6.27586207 C11.2669655,6.27586207 9.86206897,4.87096551 9.86206897,3.13793103 C9.86206897,1.40489656 11.2669655,0 13,0 C14.7330344,0 16.137931,1.40489656 16.137931,3.13793103"></path>
                <path d="M3.51618621,22.9439241 L23.0538413,22.9439241 L13.2850138,4.5422 L3.51618621,22.9439241 Z M24.5439103,23.8404759 L2.02611724,23.8404759 L13.2850138,2.62985518 L24.5439103,23.8404759 Z"></path>
            </g>
        </g>
    </g>
</svg>